<mxfile host="app.diagrams.net" modified="2021-08-08T21:22:05.342Z" agent="5.0 (Macintosh; Intel Mac OS X 10_15_6) AppleWebKit/605.1.15 (KHTML, like Gecko) Version/14.0.3 Safari/605.1.15" etag="W4a5t5Zs4o5J-PQvwRpS" version="14.9.5" type="github">
  <diagram name="Page-1" id="13e1069c-82ec-6db2-03f1-153e76fe0fe0">
    <mxGraphModel dx="1217" dy="705" grid="0" gridSize="10" guides="1" tooltips="1" connect="1" arrows="1" fold="1" page="1" pageScale="1" pageWidth="1100" pageHeight="850" background="none" math="0" shadow="0">
      <root>
        <mxCell id="0" />
        <mxCell id="1" parent="0" />
        <mxCell id="lUZzRfqhpDz72i9qPuJh-14" value="Server" style="rounded=0;whiteSpace=wrap;html=1;labelPosition=center;verticalLabelPosition=top;align=center;verticalAlign=bottom;fillColor=none;" parent="1" vertex="1">
          <mxGeometry x="478" y="38" width="585" height="596" as="geometry" />
        </mxCell>
        <mxCell id="lUZzRfqhpDz72i9qPuJh-13" value="Client" style="rounded=0;html=1;fillColor=none;whiteSpace=wrap;labelPosition=center;verticalLabelPosition=top;align=center;verticalAlign=bottom;" parent="1" vertex="1">
          <mxGeometry x="70.5" y="39" width="397.5" height="597" as="geometry" />
        </mxCell>
        <mxCell id="7baba1c4bc27f4b0-3" value="Logger" style="shape=umlLifeline;perimeter=lifelinePerimeter;whiteSpace=wrap;html=1;container=1;collapsible=0;recursiveResize=0;outlineConnect=0;rounded=1;shadow=0;comic=0;labelBackgroundColor=none;strokeWidth=1;fontFamily=Verdana;fontSize=12;align=center;" parent="1" vertex="1">
          <mxGeometry x="166" y="80" width="70" height="1519" as="geometry" />
        </mxCell>
        <mxCell id="7baba1c4bc27f4b0-4" value="Server" style="shape=umlLifeline;perimeter=lifelinePerimeter;whiteSpace=wrap;html=1;container=1;collapsible=0;recursiveResize=0;outlineConnect=0;rounded=1;shadow=0;comic=0;labelBackgroundColor=none;strokeWidth=1;fontFamily=Verdana;fontSize=12;align=center;" parent="1" vertex="1">
          <mxGeometry x="477" y="80" width="83" height="1590" as="geometry" />
        </mxCell>
        <mxCell id="7baba1c4bc27f4b0-6" value="Object&lt;br&gt;Input&lt;br&gt;Stream" style="shape=umlLifeline;perimeter=lifelinePerimeter;whiteSpace=wrap;html=1;container=1;collapsible=0;recursiveResize=0;outlineConnect=0;rounded=1;shadow=0;comic=0;labelBackgroundColor=none;strokeWidth=1;fontFamily=Verdana;fontSize=12;align=center;" parent="1" vertex="1">
          <mxGeometry x="740" y="79" width="83" height="1520" as="geometry" />
        </mxCell>
        <mxCell id="7baba1c4bc27f4b0-7" value="System.out" style="shape=umlLifeline;perimeter=lifelinePerimeter;whiteSpace=wrap;html=1;container=1;collapsible=0;recursiveResize=0;outlineConnect=0;rounded=1;shadow=0;comic=0;labelBackgroundColor=none;strokeWidth=1;fontFamily=Verdana;fontSize=12;align=center;" parent="1" vertex="1">
          <mxGeometry x="963" y="80" width="100" height="1590" as="geometry" />
        </mxCell>
        <mxCell id="7baba1c4bc27f4b0-8" value="TreeConroller" style="shape=umlLifeline;perimeter=lifelinePerimeter;whiteSpace=wrap;html=1;container=1;collapsible=0;recursiveResize=0;outlineConnect=0;rounded=1;shadow=0;comic=0;labelBackgroundColor=none;strokeWidth=1;fontFamily=Verdana;fontSize=12;align=center;" parent="1" vertex="1">
          <mxGeometry x="87" y="80" width="70" height="1600" as="geometry" />
        </mxCell>
        <mxCell id="7baba1c4bc27f4b0-9" value="" style="html=1;points=[];perimeter=orthogonalPerimeter;rounded=0;shadow=0;comic=0;labelBackgroundColor=none;strokeWidth=1;fontFamily=Verdana;fontSize=12;align=center;" parent="7baba1c4bc27f4b0-8" vertex="1">
          <mxGeometry x="31" y="80" width="10" height="40" as="geometry" />
        </mxCell>
        <mxCell id="v2sNKhrYKezQcKQ5aqy3-1" value="Actor" style="shape=umlActor;verticalLabelPosition=bottom;verticalAlign=top;html=1;outlineConnect=0;" parent="1" vertex="1">
          <mxGeometry x="17" y="47" width="30" height="60" as="geometry" />
        </mxCell>
        <mxCell id="v2sNKhrYKezQcKQ5aqy3-5" value="" style="endArrow=none;dashed=1;html=1;dashPattern=1 3;strokeWidth=2;" parent="1" edge="1">
          <mxGeometry width="50" height="50" relative="1" as="geometry">
            <mxPoint x="27" y="1600" as="sourcePoint" />
            <mxPoint x="27" y="160" as="targetPoint" />
          </mxGeometry>
        </mxCell>
        <mxCell id="GuuvEOTeNEV0MSkpKMg_-3" value="" style="html=1;points=[];perimeter=orthogonalPerimeter;rounded=0;shadow=0;comic=0;labelBackgroundColor=none;strokeWidth=1;fontFamily=Verdana;fontSize=12;align=center;" parent="1" vertex="1">
          <mxGeometry x="196" y="160" width="10" height="429" as="geometry" />
        </mxCell>
        <mxCell id="GuuvEOTeNEV0MSkpKMg_-9" value="" style="html=1;points=[];perimeter=orthogonalPerimeter;rounded=0;shadow=0;comic=0;labelBackgroundColor=none;strokeWidth=1;fontFamily=Verdana;fontSize=12;align=center;" parent="1" vertex="1">
          <mxGeometry x="776.5" y="171" width="10" height="432" as="geometry" />
        </mxCell>
        <mxCell id="GuuvEOTeNEV0MSkpKMg_-15" value="" style="html=1;points=[];perimeter=orthogonalPerimeter;rounded=0;shadow=0;comic=0;labelBackgroundColor=none;strokeWidth=1;fontFamily=Verdana;fontSize=12;align=center;" parent="1" vertex="1">
          <mxGeometry x="1008" y="369" width="10" height="244" as="geometry" />
        </mxCell>
        <mxCell id="GuuvEOTeNEV0MSkpKMg_-17" value="Interactions on &lt;br&gt;ExistingSysem&lt;br&gt;update()" style="html=1;verticalAlign=bottom;endArrow=block;labelBackgroundColor=none;fontFamily=Verdana;fontSize=12;edgeStyle=elbowEdgeStyle;elbow=horizontal;exitX=1.06;exitY=0.064;exitDx=0;exitDy=0;exitPerimeter=0;" parent="1" edge="1">
          <mxGeometry relative="1" as="geometry">
            <mxPoint x="26.999999999999915" y="170.02999999999994" as="sourcePoint" />
            <mxPoint x="117" y="170" as="targetPoint" />
          </mxGeometry>
        </mxCell>
        <mxCell id="GuuvEOTeNEV0MSkpKMg_-24" value="" style="endArrow=none;html=1;dashed=1;" parent="1" edge="1">
          <mxGeometry width="50" height="50" relative="1" as="geometry">
            <mxPoint x="4" y="643" as="sourcePoint" />
            <mxPoint x="1096" y="643" as="targetPoint" />
          </mxGeometry>
        </mxCell>
        <mxCell id="z9VeMY2LPaJ1HMEdanNb-1" value="ObjectOutputStream" style="shape=umlLifeline;perimeter=lifelinePerimeter;whiteSpace=wrap;html=1;container=1;collapsible=0;recursiveResize=0;outlineConnect=0;rounded=1;shadow=0;comic=0;labelBackgroundColor=none;strokeWidth=1;fontFamily=Verdana;fontSize=12;align=center;" parent="1" vertex="1">
          <mxGeometry x="332" y="80" width="120" height="1600" as="geometry" />
        </mxCell>
        <mxCell id="z9VeMY2LPaJ1HMEdanNb-2" value="Client&lt;br&gt;Handler" style="shape=umlLifeline;perimeter=lifelinePerimeter;whiteSpace=wrap;html=1;container=1;collapsible=0;recursiveResize=0;outlineConnect=0;rounded=1;shadow=0;comic=0;labelBackgroundColor=none;strokeWidth=1;fontFamily=Verdana;fontSize=12;align=center;" parent="1" vertex="1">
          <mxGeometry x="660" y="79" width="69" height="1591" as="geometry" />
        </mxCell>
        <mxCell id="z9VeMY2LPaJ1HMEdanNb-3" value="Calculate&lt;br&gt;Visitor" style="shape=umlLifeline;perimeter=lifelinePerimeter;whiteSpace=wrap;html=1;container=1;collapsible=0;recursiveResize=0;outlineConnect=0;rounded=1;shadow=0;comic=0;labelBackgroundColor=none;strokeWidth=1;fontFamily=Verdana;fontSize=12;align=center;" parent="1" vertex="1">
          <mxGeometry x="835" y="80" width="120" height="1590" as="geometry" />
        </mxCell>
        <mxCell id="z9VeMY2LPaJ1HMEdanNb-5" value="send()" style="html=1;verticalAlign=bottom;endArrow=block;labelBackgroundColor=none;fontFamily=Verdana;fontSize=12;edgeStyle=elbowEdgeStyle;elbow=horizontal;exitX=1.167;exitY=0.75;exitDx=0;exitDy=0;exitPerimeter=0;" parent="1" source="7baba1c4bc27f4b0-9" edge="1">
          <mxGeometry relative="1" as="geometry">
            <mxPoint x="137" y="190.02999999999997" as="sourcePoint" />
            <mxPoint x="204" y="190" as="targetPoint" />
          </mxGeometry>
        </mxCell>
        <mxCell id="z9VeMY2LPaJ1HMEdanNb-10" value="write()" style="html=1;verticalAlign=bottom;endArrow=block;labelBackgroundColor=none;fontFamily=Verdana;fontSize=12;edgeStyle=elbowEdgeStyle;elbow=horizontal;" parent="1" edge="1">
          <mxGeometry relative="1" as="geometry">
            <mxPoint x="204.75" y="323" as="sourcePoint" />
            <mxPoint x="386" y="323" as="targetPoint" />
          </mxGeometry>
        </mxCell>
        <mxCell id="z9VeMY2LPaJ1HMEdanNb-13" value="" style="html=1;points=[];perimeter=orthogonalPerimeter;rounded=0;shadow=0;comic=0;labelBackgroundColor=none;strokeWidth=1;fontFamily=Verdana;fontSize=12;align=center;" parent="1" vertex="1">
          <mxGeometry x="512" y="160" width="10" height="439" as="geometry" />
        </mxCell>
        <mxCell id="lUZzRfqhpDz72i9qPuJh-1" value="init()" style="html=1;verticalAlign=bottom;endArrow=block;labelBackgroundColor=none;fontFamily=Verdana;fontSize=12;elbow=vertical;edgeStyle=orthogonalEdgeStyle;curved=1;exitX=1.1;exitY=0.2;exitDx=0;exitDy=0;exitPerimeter=0;" parent="1" edge="1">
          <mxGeometry x="-0.0932" y="11" relative="1" as="geometry">
            <mxPoint x="523" y="181" as="sourcePoint" />
            <mxPoint x="521.9966666666664" y="213.20000000000005" as="targetPoint" />
            <Array as="points">
              <mxPoint x="582" y="181" />
              <mxPoint x="582" y="213" />
            </Array>
            <mxPoint as="offset" />
          </mxGeometry>
        </mxCell>
        <mxCell id="lUZzRfqhpDz72i9qPuJh-2" value="start()" style="html=1;verticalAlign=bottom;endArrow=block;labelBackgroundColor=none;fontFamily=Verdana;fontSize=12;edgeStyle=elbowEdgeStyle;elbow=horizontal;" parent="1" edge="1">
          <mxGeometry relative="1" as="geometry">
            <mxPoint x="522" y="273" as="sourcePoint" />
            <mxPoint x="684" y="273" as="targetPoint" />
          </mxGeometry>
        </mxCell>
        <mxCell id="lUZzRfqhpDz72i9qPuJh-3" value="" style="html=1;points=[];perimeter=orthogonalPerimeter;rounded=0;shadow=0;comic=0;labelBackgroundColor=none;strokeWidth=1;fontFamily=Verdana;fontSize=12;align=center;" parent="1" vertex="1">
          <mxGeometry x="689.5" y="163.5" width="10" height="432" as="geometry" />
        </mxCell>
        <mxCell id="lUZzRfqhpDz72i9qPuJh-4" value="" style="html=1;points=[];perimeter=orthogonalPerimeter;rounded=0;shadow=0;comic=0;labelBackgroundColor=none;strokeWidth=1;fontFamily=Verdana;fontSize=12;align=center;" parent="1" vertex="1">
          <mxGeometry x="387" y="181" width="10" height="432" as="geometry" />
        </mxCell>
        <mxCell id="lUZzRfqhpDz72i9qPuJh-6" value="readObject()" style="html=1;verticalAlign=bottom;endArrow=block;labelBackgroundColor=none;fontFamily=Verdana;fontSize=12;elbow=vertical;edgeStyle=orthogonalEdgeStyle;curved=1;exitX=1.1;exitY=0.2;exitDx=0;exitDy=0;exitPerimeter=0;" parent="1" edge="1">
          <mxGeometry x="-0.0932" y="11" relative="1" as="geometry">
            <mxPoint x="787.5" y="270" as="sourcePoint" />
            <mxPoint x="786.4966666666664" y="302.20000000000005" as="targetPoint" />
            <Array as="points">
              <mxPoint x="846.5" y="270" />
              <mxPoint x="846.5" y="302" />
            </Array>
            <mxPoint as="offset" />
          </mxGeometry>
        </mxCell>
        <mxCell id="lUZzRfqhpDz72i9qPuJh-7" value="" style="html=1;verticalAlign=bottom;endArrow=none;labelBackgroundColor=none;fontFamily=Verdana;fontSize=12;edgeStyle=elbowEdgeStyle;elbow=horizontal;startArrow=block;startFill=1;endFill=0;dashed=1;" parent="1" edge="1">
          <mxGeometry relative="1" as="geometry">
            <mxPoint x="698" y="326" as="sourcePoint" />
            <mxPoint x="776.5" y="326" as="targetPoint" />
          </mxGeometry>
        </mxCell>
        <mxCell id="lUZzRfqhpDz72i9qPuJh-8" value="log()" style="html=1;verticalAlign=bottom;endArrow=block;labelBackgroundColor=none;fontFamily=Verdana;fontSize=12;edgeStyle=elbowEdgeStyle;elbow=horizontal;" parent="1" edge="1">
          <mxGeometry relative="1" as="geometry">
            <mxPoint x="529.5" y="379" as="sourcePoint" />
            <mxPoint x="884" y="379" as="targetPoint" />
          </mxGeometry>
        </mxCell>
        <mxCell id="lUZzRfqhpDz72i9qPuJh-9" value="" style="html=1;points=[];perimeter=orthogonalPerimeter;rounded=0;shadow=0;comic=0;labelBackgroundColor=none;strokeWidth=1;fontFamily=Verdana;fontSize=12;align=center;" parent="1" vertex="1">
          <mxGeometry x="890" y="329" width="10" height="290" as="geometry" />
        </mxCell>
        <mxCell id="lUZzRfqhpDz72i9qPuJh-10" value="println()" style="html=1;verticalAlign=bottom;endArrow=block;labelBackgroundColor=none;fontFamily=Verdana;fontSize=12;edgeStyle=elbowEdgeStyle;elbow=horizontal;" parent="1" edge="1">
          <mxGeometry relative="1" as="geometry">
            <mxPoint x="902" y="416" as="sourcePoint" />
            <mxPoint x="1012" y="416" as="targetPoint" />
          </mxGeometry>
        </mxCell>
        <mxCell id="lUZzRfqhpDz72i9qPuJh-12" value="crosswire communication" style="html=1;verticalAlign=bottom;endArrow=none;labelBackgroundColor=none;fontFamily=Verdana;fontSize=12;edgeStyle=elbowEdgeStyle;elbow=horizontal;dashed=1;dashPattern=1 4;endFill=0;" parent="1" edge="1">
          <mxGeometry relative="1" as="geometry">
            <mxPoint x="405" y="344" as="sourcePoint" />
            <mxPoint x="515" y="344" as="targetPoint" />
          </mxGeometry>
        </mxCell>
        <mxCell id="lUZzRfqhpDz72i9qPuJh-15" value="init()" style="html=1;verticalAlign=bottom;endArrow=block;labelBackgroundColor=none;fontFamily=Verdana;fontSize=12;elbow=vertical;edgeStyle=orthogonalEdgeStyle;curved=1;exitX=1.1;exitY=0.2;exitDx=0;exitDy=0;exitPerimeter=0;" parent="1" edge="1">
          <mxGeometry x="-0.0932" y="11" relative="1" as="geometry">
            <mxPoint x="207" y="204" as="sourcePoint" />
            <mxPoint x="205.99666666666644" y="236.20000000000005" as="targetPoint" />
            <Array as="points">
              <mxPoint x="241" y="204" />
              <mxPoint x="241" y="236" />
            </Array>
            <mxPoint as="offset" />
          </mxGeometry>
        </mxCell>
        <mxCell id="2c1uvNS8QLujskPOb8Ld-1" value="Socket" style="shape=umlLifeline;perimeter=lifelinePerimeter;whiteSpace=wrap;html=1;container=1;collapsible=0;recursiveResize=0;outlineConnect=0;rounded=1;shadow=0;comic=0;labelBackgroundColor=none;strokeWidth=1;fontFamily=Verdana;fontSize=12;align=center;" vertex="1" parent="1">
          <mxGeometry x="244" y="81" width="70" height="1519" as="geometry" />
        </mxCell>
        <mxCell id="2c1uvNS8QLujskPOb8Ld-2" value="new()" style="html=1;verticalAlign=bottom;endArrow=block;labelBackgroundColor=none;fontFamily=Verdana;fontSize=12;edgeStyle=elbowEdgeStyle;elbow=horizontal;exitX=1.167;exitY=0.75;exitDx=0;exitDy=0;exitPerimeter=0;" edge="1" parent="1">
          <mxGeometry x="-0.139" y="-23" relative="1" as="geometry">
            <mxPoint x="210.00000000000006" y="227" as="sourcePoint" />
            <mxPoint x="284.33" y="227" as="targetPoint" />
            <mxPoint as="offset" />
          </mxGeometry>
        </mxCell>
        <mxCell id="2c1uvNS8QLujskPOb8Ld-3" value="getOutputStream()" style="html=1;verticalAlign=bottom;endArrow=block;labelBackgroundColor=none;fontFamily=Verdana;fontSize=12;edgeStyle=elbowEdgeStyle;elbow=horizontal;exitX=1.167;exitY=0.75;exitDx=0;exitDy=0;exitPerimeter=0;" edge="1" parent="1">
          <mxGeometry x="-0.139" y="-23" relative="1" as="geometry">
            <mxPoint x="280" y="242" as="sourcePoint" />
            <mxPoint x="385" y="242" as="targetPoint" />
            <mxPoint as="offset" />
          </mxGeometry>
        </mxCell>
        <mxCell id="2c1uvNS8QLujskPOb8Ld-4" value="Server&lt;br&gt;Socket" style="shape=umlLifeline;perimeter=lifelinePerimeter;whiteSpace=wrap;html=1;container=1;collapsible=0;recursiveResize=0;outlineConnect=0;rounded=1;shadow=0;comic=0;labelBackgroundColor=none;strokeWidth=1;fontFamily=Verdana;fontSize=12;align=center;" vertex="1" parent="1">
          <mxGeometry x="569" y="80" width="83" height="1590" as="geometry" />
        </mxCell>
        <mxCell id="2c1uvNS8QLujskPOb8Ld-5" value="new()" style="html=1;verticalAlign=bottom;endArrow=block;labelBackgroundColor=none;fontFamily=Verdana;fontSize=12;edgeStyle=elbowEdgeStyle;elbow=horizontal;" edge="1" parent="1">
          <mxGeometry x="1" y="-25" relative="1" as="geometry">
            <mxPoint x="524" y="200" as="sourcePoint" />
            <mxPoint x="612" y="200" as="targetPoint" />
            <mxPoint x="19" y="-8" as="offset" />
          </mxGeometry>
        </mxCell>
        <mxCell id="2c1uvNS8QLujskPOb8Ld-6" value="accept()" style="html=1;verticalAlign=bottom;endArrow=block;labelBackgroundColor=none;fontFamily=Verdana;fontSize=12;edgeStyle=elbowEdgeStyle;elbow=horizontal;" edge="1" parent="1">
          <mxGeometry x="0.2045" y="6" relative="1" as="geometry">
            <mxPoint x="525" y="249" as="sourcePoint" />
            <mxPoint x="613" y="249" as="targetPoint" />
            <mxPoint as="offset" />
          </mxGeometry>
        </mxCell>
      </root>
    </mxGraphModel>
  </diagram>
</mxfile>
